<?xml version="1.0" encoding="UTF-8"?>
<svg xmlns="http://www.w3.org/2000/svg" xmlns:xlink="http://www.w3.org/1999/xlink" width="595.28pt" height="841.889pt" viewBox="0 0 595.28 841.889" version="1.1">
<g id="surface1">
<path style=" stroke:none;fill-rule:nonzero;fill:rgb(14.117432%,14.784241%,36.538696%);fill-opacity:1;" d="M 404.773438 174.136719 C 404.773438 178.1875 401.484375 181.476563 397.429688 181.476563 L 199.851563 181.476563 C 195.796875 181.476563 192.507813 178.1875 192.507813 174.136719 L 192.507813 82.675781 C 192.507813 78.628906 195.796875 75.34375 199.851563 75.34375 L 397.429688 75.34375 C 401.484375 75.34375 404.773438 78.628906 404.773438 82.675781 Z M 404.773438 174.136719 "/>
<path style=" stroke:none;fill-rule:nonzero;fill:rgb(100%,100%,100%);fill-opacity:1;" d="M 311.042969 135.515625 L 311.042969 122.445313 L 312.359375 122.445313 L 312.359375 127.535156 C 312.582031 127.0625 312.941406 126.714844 313.433594 126.488281 C 313.929688 126.265625 314.582031 126.152344 315.394531 126.152344 C 316.609375 126.152344 317.464844 126.394531 317.949219 126.882813 C 318.4375 127.371094 318.683594 128.230469 318.683594 129.457031 L 318.683594 135.515625 L 317.308594 135.515625 L 317.308594 129.746094 C 317.308594 128.78125 317.164063 128.148438 316.878906 127.84375 C 316.59375 127.539063 316.039063 127.386719 315.214844 127.386719 C 314.246094 127.386719 313.535156 127.605469 313.085938 128.046875 C 312.636719 128.484375 312.410156 129.183594 312.410156 130.144531 L 312.410156 135.515625 Z M 311.042969 135.515625 "/>
<path style=" stroke:none;fill-rule:nonzero;fill:rgb(100%,100%,100%);fill-opacity:1;" d="M 327.753906 131.6875 L 327.753906 130.109375 C 327.753906 128.945313 327.605469 128.203125 327.3125 127.882813 C 327.011719 127.566406 326.390625 127.40625 325.4375 127.40625 L 324.792969 127.40625 C 323.847656 127.40625 323.226563 127.5625 322.9375 127.878906 C 322.644531 128.195313 322.5 128.9375 322.5 130.109375 L 322.5 131.6875 C 322.5 132.863281 322.648438 133.609375 322.941406 133.925781 C 323.234375 134.242188 323.851563 134.398438 324.792969 134.398438 L 325.4375 134.398438 C 326.382813 134.398438 327.003906 134.238281 327.304688 133.917969 C 327.605469 133.59375 327.753906 132.851563 327.753906 131.6875 M 324.808594 135.636719 C 323.421875 135.636719 322.453125 135.367188 321.902344 134.832031 C 321.347656 134.292969 321.070313 133.347656 321.070313 131.996094 L 321.070313 129.800781 C 321.070313 128.445313 321.34375 127.496094 321.894531 126.957031 C 322.445313 126.417969 323.410156 126.152344 324.792969 126.152344 L 325.4375 126.152344 C 326.824219 126.152344 327.792969 126.417969 328.347656 126.957031 C 328.898438 127.496094 329.175781 128.445313 329.175781 129.800781 L 329.175781 131.996094 C 329.175781 133.351563 328.898438 134.296875 328.351563 134.835938 C 327.800781 135.371094 326.832031 135.636719 325.453125 135.636719 Z M 324.808594 135.636719 "/>
<path style=" stroke:none;fill-rule:nonzero;fill:rgb(100%,100%,100%);fill-opacity:1;" d="M 331.308594 132.769531 L 332.703125 132.769531 L 332.703125 132.976563 C 332.703125 133.546875 332.878906 133.9375 333.230469 134.152344 C 333.582031 134.363281 334.292969 134.46875 335.355469 134.46875 C 336.550781 134.46875 337.285156 134.363281 337.558594 134.144531 C 337.835938 133.929688 337.972656 133.507813 337.972656 132.890625 C 337.972656 132.289063 337.863281 131.886719 337.632813 131.683594 C 337.410156 131.480469 336.84375 131.359375 335.9375 131.3125 C 335.605469 131.292969 335.152344 131.277344 334.578125 131.257813 C 333.332031 131.222656 332.59375 131.136719 332.359375 131.003906 C 332.003906 130.808594 331.753906 130.546875 331.605469 130.214844 C 331.453125 129.878906 331.378906 129.398438 331.378906 128.773438 C 331.378906 127.75 331.640625 127.054688 332.164063 126.695313 C 332.6875 126.332031 333.839844 126.152344 335.621094 126.152344 C 337 126.152344 337.9375 126.324219 338.429688 126.667969 C 338.917969 127.011719 339.164063 127.621094 339.164063 128.484375 L 337.789063 128.484375 L 337.789063 128.398438 C 337.789063 127.988281 337.613281 127.707031 337.257813 127.550781 C 336.902344 127.394531 336.195313 127.316406 335.136719 127.316406 C 334.113281 127.316406 333.460938 127.410156 333.179688 127.597656 C 332.898438 127.785156 332.753906 128.175781 332.753906 128.773438 C 332.753906 129.136719 332.78125 129.390625 332.832031 129.539063 C 332.886719 129.683594 332.980469 129.796875 333.117188 129.871094 C 333.394531 130.019531 334.003906 130.101563 334.949219 130.125 C 335.191406 130.132813 335.375 130.136719 335.503906 130.144531 C 336.28125 130.171875 336.890625 130.210938 337.332031 130.261719 C 337.773438 130.3125 338.085938 130.378906 338.277344 130.46875 C 338.6875 130.65625 338.980469 130.925781 339.152344 131.277344 C 339.328125 131.625 339.414063 132.136719 339.414063 132.800781 C 339.414063 133.480469 339.328125 133.996094 339.15625 134.347656 C 338.988281 134.699219 338.679688 135.007813 338.238281 135.277344 C 338.039063 135.40625 337.710938 135.496094 337.261719 135.554688 C 336.808594 135.609375 336.179688 135.636719 335.371094 135.636719 C 333.726563 135.636719 332.636719 135.449219 332.109375 135.070313 C 331.574219 134.695313 331.308594 134.007813 331.308594 133.011719 Z M 331.308594 132.769531 "/>
<path style=" stroke:none;fill-rule:nonzero;fill:rgb(100%,100%,100%);fill-opacity:1;" d="M 343.566406 131.652344 C 343.566406 132.613281 343.792969 133.308594 344.242188 133.746094 C 344.6875 134.179688 345.410156 134.398438 346.40625 134.398438 C 347.304688 134.398438 347.902344 134.238281 348.199219 133.917969 C 348.496094 133.59375 348.644531 132.851563 348.644531 131.6875 L 348.644531 130.109375 C 348.644531 128.9375 348.496094 128.191406 348.199219 127.871094 C 347.902344 127.546875 347.304688 127.386719 346.40625 127.386719 C 345.410156 127.386719 344.6875 127.605469 344.242188 128.042969 C 343.792969 128.476563 343.566406 129.175781 343.566406 130.140625 Z M 342.199219 126.273438 L 343.511719 126.273438 L 343.511719 127.710938 C 343.738281 127.175781 344.085938 126.78125 344.558594 126.527344 C 345.03125 126.277344 345.664063 126.152344 346.457031 126.152344 C 347.78125 126.152344 348.710938 126.421875 349.257813 126.964844 C 349.800781 127.511719 350.074219 128.457031 350.074219 129.800781 L 350.074219 131.996094 C 350.074219 133.335938 349.800781 134.277344 349.257813 134.820313 C 348.710938 135.363281 347.78125 135.636719 346.457031 135.636719 C 345.695313 135.636719 345.085938 135.523438 344.636719 135.300781 C 344.1875 135.074219 343.832031 134.707031 343.566406 134.199219 L 343.566406 139.050781 L 342.199219 139.050781 Z M 342.199219 126.273438 "/>
<path style=" stroke:none;fill-rule:nonzero;fill:rgb(100%,100%,100%);fill-opacity:1;" d="M 352.550781 126.273438 L 353.917969 126.273438 L 353.917969 135.515625 L 352.550781 135.515625 Z M 352.550781 122.445313 L 353.917969 122.445313 L 353.917969 123.992188 L 352.550781 123.992188 Z M 352.550781 122.445313 "/>
<path style=" stroke:none;fill-rule:nonzero;fill:rgb(100%,100%,100%);fill-opacity:1;" d="M 355.847656 127.441406 L 355.847656 126.273438 L 356.984375 126.273438 L 356.984375 124.191406 L 358.363281 124.191406 L 358.363281 126.273438 L 362.910156 126.273438 L 362.910156 127.441406 L 358.363281 127.441406 L 358.363281 132.53125 C 358.363281 133.257813 358.480469 133.746094 358.71875 134.007813 C 358.957031 134.269531 359.410156 134.398438 360.082031 134.398438 C 360.746094 134.398438 361.195313 134.273438 361.425781 134.023438 C 361.65625 133.769531 361.773438 133.273438 361.773438 132.53125 L 361.773438 132.257813 L 363.167969 132.257813 L 363.167969 132.335938 C 363.167969 133.636719 362.953125 134.511719 362.519531 134.960938 C 362.085938 135.410156 361.191406 135.636719 359.828125 135.636719 C 358.761719 135.636719 358.023438 135.398438 357.609375 134.921875 C 357.191406 134.445313 356.984375 133.585938 356.984375 132.335938 L 356.984375 127.441406 Z M 355.847656 127.441406 "/>
<path style=" stroke:none;fill-rule:nonzero;fill:rgb(100%,100%,100%);fill-opacity:1;" d="M 371.746094 133.164063 L 371.746094 132.1875 C 371.746094 131.75 371.523438 131.429688 371.070313 131.222656 C 370.625 131.019531 369.90625 130.914063 368.925781 130.914063 C 368.027344 130.914063 367.425781 131.027344 367.121094 131.253906 C 366.820313 131.480469 366.667969 131.910156 366.667969 132.546875 C 366.667969 133.273438 366.828125 133.757813 367.148438 134 C 367.46875 134.242188 368.109375 134.363281 369.074219 134.363281 C 369.9375 134.363281 370.601563 134.261719 371.058594 134.050781 C 371.519531 133.84375 371.746094 133.546875 371.746094 133.164063 M 371.816406 134.539063 C 371.605469 134.925781 371.269531 135.207031 370.808594 135.378906 C 370.347656 135.550781 369.707031 135.636719 368.890625 135.636719 C 367.4375 135.636719 366.464844 135.429688 365.972656 135.019531 C 365.476563 134.605469 365.230469 133.839844 365.230469 132.714844 C 365.230469 132.066406 365.285156 131.558594 365.402344 131.1875 C 365.515625 130.820313 365.707031 130.523438 365.972656 130.300781 C 366.195313 130.113281 366.519531 129.980469 366.953125 129.902344 C 367.386719 129.824219 368.007813 129.785156 368.820313 129.785156 C 369.660156 129.785156 370.300781 129.851563 370.746094 129.992188 C 371.1875 130.128906 371.523438 130.359375 371.746094 130.679688 L 371.746094 129.082031 C 371.746094 128.328125 371.601563 127.835938 371.308594 127.617188 C 371.011719 127.394531 370.273438 127.28125 369.09375 127.28125 C 368.234375 127.28125 367.664063 127.371094 367.382813 127.550781 C 367.101563 127.726563 366.953125 128.0625 366.941406 128.554688 L 365.574219 128.554688 L 365.574219 128.34375 C 365.574219 127.554688 365.832031 126.992188 366.347656 126.65625 C 366.859375 126.316406 367.746094 126.152344 369.003906 126.152344 C 369.984375 126.152344 370.734375 126.191406 371.242188 126.273438 C 371.757813 126.355469 372.136719 126.488281 372.382813 126.667969 C 372.652344 126.878906 372.84375 127.136719 372.957031 127.449219 C 373.066406 127.757813 373.121094 128.292969 373.121094 129.046875 L 373.121094 135.515625 L 371.871094 135.515625 Z M 371.816406 134.539063 "/>
<path style=" stroke:none;fill-rule:nonzero;fill:rgb(100%,100%,100%);fill-opacity:1;" d="M 375.882813 122.445313 L 377.25 122.445313 L 377.25 135.515625 L 375.882813 135.515625 Z M 375.882813 122.445313 "/>
<path style=" stroke:none;fill-rule:nonzero;fill:rgb(100%,100%,100%);fill-opacity:1;" d="M 379.761719 132.769531 L 381.15625 132.769531 L 381.15625 132.976563 C 381.15625 133.546875 381.332031 133.9375 381.6875 134.152344 C 382.039063 134.363281 382.746094 134.46875 383.808594 134.46875 C 385.003906 134.46875 385.738281 134.363281 386.015625 134.144531 C 386.289063 133.929688 386.429688 133.507813 386.429688 132.890625 C 386.429688 132.289063 386.316406 131.886719 386.089844 131.683594 C 385.863281 131.480469 385.296875 131.359375 384.394531 131.3125 C 384.058594 131.292969 383.605469 131.277344 383.035156 131.257813 C 381.785156 131.222656 381.046875 131.136719 380.8125 131.003906 C 380.457031 130.808594 380.207031 130.546875 380.058594 130.214844 C 379.90625 129.878906 379.832031 129.398438 379.832031 128.773438 C 379.832031 127.75 380.09375 127.054688 380.617188 126.695313 C 381.140625 126.332031 382.292969 126.152344 384.074219 126.152344 C 385.457031 126.152344 386.394531 126.324219 386.882813 126.667969 C 387.371094 127.011719 387.621094 127.621094 387.621094 128.484375 L 386.242188 128.484375 L 386.242188 128.398438 C 386.242188 127.988281 386.066406 127.707031 385.710938 127.550781 C 385.355469 127.394531 384.648438 127.316406 383.589844 127.316406 C 382.566406 127.316406 381.914063 127.410156 381.632813 127.597656 C 381.351563 127.785156 381.207031 128.175781 381.207031 128.773438 C 381.207031 129.136719 381.234375 129.390625 381.285156 129.539063 C 381.339844 129.683594 381.4375 129.796875 381.570313 129.871094 C 381.847656 130.019531 382.457031 130.101563 383.40625 130.125 C 383.644531 130.132813 383.828125 130.136719 383.960938 130.144531 C 384.738281 130.171875 385.34375 130.210938 385.785156 130.261719 C 386.226563 130.3125 386.539063 130.378906 386.730469 130.46875 C 387.140625 130.65625 387.433594 130.925781 387.605469 131.277344 C 387.78125 131.625 387.867188 132.136719 387.867188 132.800781 C 387.867188 133.480469 387.78125 133.996094 387.609375 134.347656 C 387.441406 134.699219 387.132813 135.007813 386.695313 135.277344 C 386.492188 135.40625 386.167969 135.496094 385.714844 135.554688 C 385.261719 135.609375 384.632813 135.636719 383.828125 135.636719 C 382.183594 135.636719 381.09375 135.449219 380.5625 135.070313 C 380.027344 134.695313 379.761719 134.007813 379.761719 133.011719 Z M 379.761719 132.769531 "/>
<path style=" stroke:none;fill-rule:nonzero;fill:rgb(100%,100%,100%);fill-opacity:1;" d="M 314.800781 154.761719 C 313.414063 154.761719 312.445313 154.492188 311.894531 153.953125 C 311.339844 153.414063 311.0625 152.46875 311.0625 151.117188 L 311.0625 148.925781 C 311.0625 147.566406 311.335938 146.621094 311.886719 146.082031 C 312.4375 145.542969 313.402344 145.273438 314.785156 145.273438 L 315.429688 145.273438 C 316.738281 145.273438 317.683594 145.523438 318.261719 146.023438 C 318.839844 146.523438 319.144531 147.34375 319.167969 148.488281 L 317.746094 148.496094 C 317.71875 147.746094 317.546875 147.234375 317.234375 146.953125 C 316.921875 146.671875 316.320313 146.53125 315.429688 146.53125 L 314.785156 146.53125 C 313.835938 146.53125 313.21875 146.6875 312.929688 147.003906 C 312.636719 147.320313 312.492188 148.0625 312.492188 149.234375 L 312.492188 150.8125 C 312.492188 151.988281 312.640625 152.734375 312.933594 153.050781 C 313.226563 153.367188 313.84375 153.523438 314.785156 153.523438 L 315.429688 153.523438 C 316.332031 153.523438 316.945313 153.371094 317.265625 153.0625 C 317.585938 152.757813 317.746094 152.195313 317.746094 151.382813 L 317.746094 151.226563 L 319.167969 151.226563 L 319.167969 151.402344 C 319.167969 152.605469 318.878906 153.46875 318.308594 153.984375 C 317.734375 154.503906 316.78125 154.761719 315.445313 154.761719 Z M 314.800781 154.761719 "/>
<path style=" stroke:none;fill-rule:nonzero;fill:rgb(100%,100%,100%);fill-opacity:1;" d="M 321.644531 141.570313 L 323.011719 141.570313 L 323.011719 154.640625 L 321.644531 154.640625 Z M 321.644531 141.570313 "/>
<path style=" stroke:none;fill-rule:nonzero;fill:rgb(100%,100%,100%);fill-opacity:1;" d="M 325.867188 145.398438 L 327.234375 145.398438 L 327.234375 154.640625 L 325.867188 154.640625 Z M 325.867188 141.570313 L 327.234375 141.570313 L 327.234375 143.113281 L 325.867188 143.113281 Z M 325.867188 141.570313 "/>
<path style=" stroke:none;fill-rule:nonzero;fill:rgb(100%,100%,100%);fill-opacity:1;" d="M 330.089844 154.640625 L 330.089844 145.398438 L 331.402344 145.398438 L 331.402344 146.664063 C 331.628906 146.1875 331.988281 145.839844 332.480469 145.613281 C 332.976563 145.386719 333.625 145.273438 334.4375 145.273438 C 335.652344 145.273438 336.507813 145.519531 336.996094 146.007813 C 337.484375 146.496094 337.726563 147.355469 337.726563 148.582031 L 337.726563 154.640625 L 336.351563 154.640625 L 336.351563 148.871094 C 336.351563 147.90625 336.207031 147.273438 335.925781 146.96875 C 335.640625 146.664063 335.085938 146.511719 334.261719 146.511719 C 333.292969 146.511719 332.582031 146.730469 332.132813 147.175781 C 331.683594 147.617188 331.457031 148.3125 331.457031 149.265625 L 331.457031 154.640625 Z M 330.089844 154.640625 "/>
<path style=" stroke:none;fill-rule:nonzero;fill:rgb(100%,100%,100%);fill-opacity:1;" d="M 340.496094 145.398438 L 341.863281 145.398438 L 341.863281 154.640625 L 340.496094 154.640625 Z M 340.496094 141.570313 L 341.863281 141.570313 L 341.863281 143.113281 L 340.496094 143.113281 Z M 340.496094 141.570313 "/>
<path style=" stroke:none;fill-rule:nonzero;fill:rgb(100%,100%,100%);fill-opacity:1;" d="M 348.082031 154.761719 C 346.691406 154.761719 345.722656 154.492188 345.171875 153.953125 C 344.617188 153.414063 344.34375 152.46875 344.34375 151.117188 L 344.34375 148.925781 C 344.34375 147.566406 344.617188 146.621094 345.164063 146.082031 C 345.714844 145.542969 346.683594 145.273438 348.0625 145.273438 L 348.707031 145.273438 C 350.015625 145.273438 350.960938 145.523438 351.542969 146.023438 C 352.121094 146.523438 352.421875 147.34375 352.445313 148.488281 L 351.027344 148.496094 C 350.996094 147.746094 350.824219 147.234375 350.515625 146.953125 C 350.203125 146.671875 349.601563 146.53125 348.707031 146.53125 L 348.0625 146.53125 C 347.117188 146.53125 346.5 146.6875 346.207031 147.003906 C 345.917969 147.320313 345.769531 148.0625 345.769531 149.234375 L 345.769531 150.8125 C 345.769531 151.988281 345.917969 152.734375 346.210938 153.050781 C 346.503906 153.367188 347.121094 153.523438 348.0625 153.523438 L 348.707031 153.523438 C 349.613281 153.523438 350.226563 153.371094 350.546875 153.0625 C 350.863281 152.757813 351.027344 152.195313 351.027344 151.382813 L 351.027344 151.226563 L 352.445313 151.226563 L 352.445313 151.402344 C 352.445313 152.605469 352.160156 153.46875 351.585938 153.984375 C 351.011719 154.503906 350.058594 154.761719 348.726563 154.761719 Z M 348.082031 154.761719 "/>
<path style=" stroke:none;fill-rule:nonzero;fill:rgb(100%,100%,100%);fill-opacity:1;" d="M 354.578125 151.890625 L 355.972656 151.890625 L 355.972656 152.101563 C 355.972656 152.671875 356.148438 153.0625 356.5 153.273438 C 356.851563 153.488281 357.5625 153.59375 358.625 153.59375 C 359.816406 153.59375 360.554688 153.488281 360.828125 153.269531 C 361.105469 153.054688 361.242188 152.636719 361.242188 152.015625 C 361.242188 151.414063 361.132813 151.011719 360.902344 150.808594 C 360.679688 150.605469 360.113281 150.480469 359.207031 150.433594 C 358.875 150.417969 358.421875 150.398438 357.847656 150.382813 C 356.601563 150.347656 355.863281 150.265625 355.628906 150.128906 C 355.273438 149.933594 355.023438 149.671875 354.875 149.339844 C 354.722656 149.003906 354.648438 148.523438 354.648438 147.898438 C 354.648438 146.875 354.910156 146.179688 355.433594 145.816406 C 355.957031 145.457031 357.109375 145.273438 358.890625 145.273438 C 360.269531 145.273438 361.207031 145.445313 361.699219 145.792969 C 362.1875 146.136719 362.433594 146.742188 362.433594 147.609375 L 361.058594 147.609375 L 361.058594 147.523438 C 361.058594 147.113281 360.882813 146.832031 360.527344 146.675781 C 360.171875 146.519531 359.464844 146.441406 358.40625 146.441406 C 357.382813 146.441406 356.730469 146.535156 356.449219 146.722656 C 356.167969 146.910156 356.023438 147.300781 356.023438 147.898438 C 356.023438 148.261719 356.050781 148.515625 356.101563 148.660156 C 356.15625 148.808594 356.25 148.921875 356.386719 148.996094 C 356.660156 149.140625 357.273438 149.226563 358.21875 149.25 C 358.460938 149.257813 358.644531 149.261719 358.773438 149.265625 C 359.550781 149.296875 360.160156 149.335938 360.601563 149.386719 C 361.042969 149.4375 361.355469 149.507813 361.546875 149.59375 C 361.957031 149.78125 362.25 150.050781 362.421875 150.398438 C 362.597656 150.75 362.683594 151.261719 362.683594 151.925781 C 362.683594 152.605469 362.597656 153.121094 362.425781 153.472656 C 362.257813 153.824219 361.949219 154.132813 361.507813 154.402344 C 361.308594 154.53125 360.980469 154.621094 360.53125 154.679688 C 360.078125 154.734375 359.449219 154.761719 358.640625 154.761719 C 356.996094 154.761719 355.90625 154.574219 355.378906 154.195313 C 354.84375 153.820313 354.578125 153.132813 354.578125 152.136719 Z M 354.578125 151.890625 "/>
<path style=" stroke:none;fill-rule:nonzero;fill:rgb(100%,100%,100%);fill-opacity:1;" d="M 312.429688 166.941406 C 312.429688 167.898438 312.65625 168.597656 313.105469 169.03125 C 313.554688 169.46875 314.277344 169.6875 315.269531 169.6875 C 316.167969 169.6875 316.765625 169.527344 317.066406 169.203125 C 317.359375 168.882813 317.507813 168.140625 317.507813 166.976563 L 317.507813 165.394531 C 317.507813 164.226563 317.359375 163.480469 317.066406 163.15625 C 316.765625 162.835938 316.167969 162.675781 315.269531 162.675781 C 314.277344 162.675781 313.554688 162.894531 313.105469 163.328125 C 312.65625 163.765625 312.429688 164.464844 312.429688 165.429688 Z M 311.0625 161.558594 L 312.375 161.558594 L 312.375 163 C 312.601563 162.460938 312.949219 162.066406 313.421875 161.816406 C 313.894531 161.5625 314.527344 161.4375 315.324219 161.4375 C 316.644531 161.4375 317.578125 161.710938 318.121094 162.253906 C 318.664063 162.796875 318.9375 163.742188 318.9375 165.089844 L 318.9375 167.28125 C 318.9375 168.621094 318.664063 169.566406 318.121094 170.109375 C 317.578125 170.652344 316.644531 170.925781 315.324219 170.925781 C 314.558594 170.925781 313.949219 170.8125 313.5 170.585938 C 313.050781 170.359375 312.695313 169.992188 312.429688 169.484375 L 312.429688 174.339844 L 311.0625 174.339844 Z M 311.0625 161.558594 "/>
<path style=" stroke:none;fill-rule:nonzero;fill:rgb(100%,100%,100%);fill-opacity:1;" d="M 321.414063 170.800781 L 321.414063 157.734375 L 322.726563 157.734375 L 322.726563 162.824219 C 322.953125 162.351563 323.3125 162 323.804688 161.777344 C 324.300781 161.550781 324.949219 161.4375 325.761719 161.4375 C 326.976563 161.4375 327.832031 161.679688 328.320313 162.171875 C 328.808594 162.660156 329.050781 163.515625 329.050781 164.746094 L 329.050781 170.800781 L 327.675781 170.800781 L 327.675781 165.035156 C 327.675781 164.070313 327.53125 163.433594 327.25 163.132813 C 326.964844 162.828125 326.410156 162.675781 325.585938 162.675781 C 324.613281 162.675781 323.90625 162.894531 323.457031 163.332031 C 323.007813 163.773438 322.78125 164.472656 322.78125 165.429688 L 322.78125 170.800781 Z M 321.414063 170.800781 "/>
<path style=" stroke:none;fill-rule:nonzero;fill:rgb(100%,100%,100%);fill-opacity:1;" d="M 337.886719 168.449219 L 337.886719 167.476563 C 337.886719 167.039063 337.660156 166.714844 337.210938 166.511719 C 336.761719 166.304688 336.046875 166.203125 335.066406 166.203125 C 334.164063 166.203125 333.566406 166.316406 333.261719 166.542969 C 332.957031 166.765625 332.808594 167.199219 332.808594 167.835938 C 332.808594 168.558594 332.964844 169.046875 333.285156 169.289063 C 333.609375 169.53125 334.25 169.652344 335.214844 169.652344 C 336.078125 169.652344 336.742188 169.546875 337.199219 169.339844 C 337.65625 169.132813 337.886719 168.835938 337.886719 168.449219 M 337.957031 169.828125 C 337.746094 170.214844 337.40625 170.492188 336.949219 170.667969 C 336.484375 170.839844 335.847656 170.925781 335.03125 170.925781 C 333.578125 170.925781 332.605469 170.71875 332.113281 170.304688 C 331.617188 169.894531 331.371094 169.125 331.371094 168.003906 C 331.371094 167.351563 331.425781 166.84375 331.542969 166.472656 C 331.65625 166.105469 331.84375 165.8125 332.113281 165.589844 C 332.332031 165.402344 332.660156 165.269531 333.09375 165.1875 C 333.527344 165.109375 334.148438 165.070313 334.957031 165.070313 C 335.800781 165.070313 336.441406 165.140625 336.882813 165.277344 C 337.328125 165.414063 337.664063 165.644531 337.886719 165.964844 L 337.886719 164.371094 C 337.886719 163.613281 337.738281 163.125 337.445313 162.902344 C 337.152344 162.679688 336.414063 162.570313 335.230469 162.570313 C 334.375 162.570313 333.804688 162.65625 333.523438 162.835938 C 333.238281 163.015625 333.09375 163.351563 333.078125 163.84375 L 331.714844 163.84375 L 331.714844 163.632813 C 331.714844 162.839844 331.96875 162.277344 332.484375 161.941406 C 333 161.605469 333.886719 161.4375 335.144531 161.4375 C 336.125 161.4375 336.871094 161.476563 337.382813 161.558594 C 337.894531 161.644531 338.273438 161.773438 338.523438 161.953125 C 338.792969 162.164063 338.984375 162.425781 339.09375 162.734375 C 339.207031 163.046875 339.261719 163.578125 339.261719 164.332031 L 339.261719 170.800781 L 338.007813 170.800781 Z M 337.957031 169.828125 "/>
<path style=" stroke:none;fill-rule:nonzero;fill:rgb(100%,100%,100%);fill-opacity:1;" d="M 342.003906 170.800781 L 342.003906 161.558594 L 343.335938 161.558594 L 343.335938 162.824219 C 343.53125 162.34375 343.832031 161.992188 344.242188 161.769531 C 344.65625 161.550781 345.203125 161.4375 345.886719 161.4375 C 346.894531 161.4375 347.605469 161.679688 348.015625 162.164063 C 348.421875 162.652344 348.625 163.511719 348.625 164.746094 L 348.625 164.816406 L 347.242188 164.816406 L 347.242188 164.546875 C 347.242188 163.808594 347.125 163.3125 346.890625 163.058594 C 346.652344 162.800781 346.210938 162.675781 345.558594 162.675781 C 344.792969 162.675781 344.242188 162.890625 343.902344 163.320313 C 343.558594 163.75 343.390625 164.453125 343.390625 165.429688 L 343.390625 170.800781 Z M 342.003906 170.800781 "/>
<path style=" stroke:none;fill-rule:nonzero;fill:rgb(100%,100%,100%);fill-opacity:1;" d="M 350.664063 170.800781 L 350.664063 161.558594 L 352.003906 161.558594 L 352.003906 162.824219 C 352.199219 162.351563 352.523438 162 352.976563 161.777344 C 353.433594 161.550781 354.035156 161.4375 354.78125 161.4375 C 355.570313 161.4375 356.183594 161.558594 356.628906 161.796875 C 357.074219 162.039063 357.402344 162.425781 357.621094 162.964844 C 357.890625 162.425781 358.25 162.039063 358.691406 161.796875 C 359.136719 161.558594 359.71875 161.4375 360.433594 161.4375 C 361.648438 161.4375 362.492188 161.675781 362.964844 162.15625 C 363.433594 162.636719 363.671875 163.5 363.671875 164.746094 L 363.671875 170.800781 L 362.296875 170.800781 L 362.296875 165.175781 C 362.296875 164.144531 362.160156 163.472656 361.894531 163.152344 C 361.625 162.835938 361.105469 162.675781 360.328125 162.675781 C 359.46875 162.675781 358.84375 162.890625 358.457031 163.328125 C 358.0625 163.765625 357.867188 164.464844 357.867188 165.429688 L 357.867188 170.800781 L 356.535156 170.800781 L 356.535156 164.546875 C 356.535156 163.8125 356.402344 163.320313 356.136719 163.0625 C 355.867188 162.804688 355.359375 162.675781 354.605469 162.675781 C 353.722656 162.675781 353.074219 162.898438 352.660156 163.339844 C 352.246094 163.789063 352.039063 164.484375 352.039063 165.429688 L 352.039063 170.800781 Z M 350.664063 170.800781 "/>
<path style=" stroke:none;fill-rule:nonzero;fill:rgb(100%,100%,100%);fill-opacity:1;" d="M 372.496094 168.449219 L 372.496094 167.476563 C 372.496094 167.039063 372.273438 166.714844 371.820313 166.511719 C 371.375 166.304688 370.65625 166.203125 369.675781 166.203125 C 368.777344 166.203125 368.175781 166.316406 367.871094 166.542969 C 367.570313 166.765625 367.417969 167.199219 367.417969 167.835938 C 367.417969 168.558594 367.578125 169.046875 367.898438 169.289063 C 368.21875 169.53125 368.859375 169.652344 369.824219 169.652344 C 370.6875 169.652344 371.351563 169.546875 371.808594 169.339844 C 372.269531 169.132813 372.496094 168.835938 372.496094 168.449219 M 372.566406 169.828125 C 372.355469 170.214844 372.019531 170.492188 371.558594 170.667969 C 371.097656 170.839844 370.457031 170.925781 369.640625 170.925781 C 368.1875 170.925781 367.214844 170.71875 366.722656 170.304688 C 366.226563 169.894531 365.980469 169.125 365.980469 168.003906 C 365.980469 167.351563 366.035156 166.84375 366.152344 166.472656 C 366.265625 166.105469 366.457031 165.8125 366.722656 165.589844 C 366.945313 165.402344 367.269531 165.269531 367.707031 165.1875 C 368.136719 165.109375 368.757813 165.070313 369.570313 165.070313 C 370.410156 165.070313 371.050781 165.140625 371.496094 165.277344 C 371.9375 165.414063 372.273438 165.644531 372.496094 165.964844 L 372.496094 164.371094 C 372.496094 163.613281 372.351563 163.125 372.058594 162.902344 C 371.761719 162.679688 371.023438 162.570313 369.84375 162.570313 C 368.984375 162.570313 368.414063 162.65625 368.132813 162.835938 C 367.851563 163.015625 367.703125 163.351563 367.691406 163.84375 L 366.324219 163.84375 L 366.324219 163.632813 C 366.324219 162.839844 366.582031 162.277344 367.097656 161.941406 C 367.609375 161.605469 368.496094 161.4375 369.753906 161.4375 C 370.734375 161.4375 371.484375 161.476563 371.992188 161.558594 C 372.507813 161.644531 372.886719 161.773438 373.132813 161.953125 C 373.402344 162.164063 373.59375 162.425781 373.707031 162.734375 C 373.816406 163.046875 373.875 163.578125 373.875 164.332031 L 373.875 170.800781 L 372.621094 170.800781 Z M 372.566406 169.828125 "/>
<path style=" stroke:none;fill-rule:nonzero;fill:rgb(100%,100%,100%);fill-opacity:1;" d="M 379.988281 170.925781 C 378.601563 170.925781 377.636719 170.65625 377.082031 170.117188 C 376.527344 169.578125 376.253906 168.632813 376.253906 167.28125 L 376.253906 165.089844 C 376.253906 163.730469 376.527344 162.785156 377.078125 162.246094 C 377.625 161.707031 378.59375 161.4375 379.972656 161.4375 L 380.617188 161.4375 C 381.925781 161.4375 382.875 161.6875 383.453125 162.1875 C 384.03125 162.6875 384.332031 163.507813 384.355469 164.648438 L 382.9375 164.660156 C 382.90625 163.910156 382.734375 163.394531 382.425781 163.113281 C 382.113281 162.832031 381.511719 162.691406 380.617188 162.691406 L 379.972656 162.691406 C 379.027344 162.691406 378.40625 162.851563 378.117188 163.167969 C 377.828125 163.480469 377.679688 164.226563 377.679688 165.394531 L 377.679688 166.976563 C 377.679688 168.152344 377.828125 168.898438 378.121094 169.214844 C 378.414063 169.53125 379.03125 169.6875 379.972656 169.6875 L 380.617188 169.6875 C 381.523438 169.6875 382.136719 169.535156 382.457031 169.226563 C 382.773438 168.917969 382.9375 168.359375 382.9375 167.546875 L 382.9375 167.386719 L 384.355469 167.386719 L 384.355469 167.5625 C 384.355469 168.769531 384.070313 169.628906 383.496094 170.148438 C 382.921875 170.667969 381.96875 170.925781 380.636719 170.925781 Z M 379.988281 170.925781 "/>
<path style=" stroke:none;fill-rule:nonzero;fill:rgb(100%,100%,100%);fill-opacity:1;" d="M 385.820313 161.558594 L 387.195313 161.558594 L 389.957031 169.511719 L 392.699219 161.558594 L 394.054688 161.558594 L 390.554688 171.609375 C 390.175781 172.699219 389.785156 173.433594 389.386719 173.820313 C 388.992188 174.207031 388.457031 174.402344 387.789063 174.402344 C 387.6875 174.402344 387.578125 174.394531 387.457031 174.386719 C 387.335938 174.378906 387.207031 174.363281 387.0625 174.339844 L 387.070313 173.136719 C 387.113281 173.144531 387.164063 173.148438 387.226563 173.148438 C 387.289063 173.152344 387.375 173.152344 387.484375 173.152344 C 387.910156 173.152344 388.238281 173.058594 388.46875 172.867188 C 388.703125 172.679688 388.921875 172.308594 389.128906 171.757813 L 389.46875 170.800781 L 389.054688 170.800781 Z M 385.820313 161.558594 "/>
<path style=" stroke:none;fill-rule:nonzero;fill:rgb(100%,100%,100%);fill-opacity:1;" d="M 299.015625 174.402344 L 298.265625 174.402344 L 298.265625 122.089844 L 299.015625 122.089844 Z M 299.015625 174.402344 "/>
<path style=" stroke:none;fill-rule:nonzero;fill:rgb(34.00116%,78.631592%,92.855835%);fill-opacity:1;" d="M 252.9375 112.210938 L 259.988281 112.210938 L 259.988281 105.152344 C 259.988281 101.539063 257.054688 98.605469 253.429688 98.605469 L 246.375 98.605469 L 246.375 105.65625 C 246.375 109.273438 249.308594 112.210938 252.9375 112.210938 "/>
<path style=" stroke:none;fill-rule:nonzero;fill:rgb(63.000488%,83.872986%,11.605835%);fill-opacity:1;" d="M 236.574219 112.210938 L 229.519531 112.210938 L 229.519531 105.152344 C 229.519531 101.539063 232.453125 98.605469 236.074219 98.605469 L 243.136719 98.605469 L 243.136719 105.65625 C 243.136719 109.273438 240.203125 112.210938 236.574219 112.210938 "/>
<path style=" stroke:none;fill-rule:nonzero;fill:rgb(63.000488%,83.872986%,11.605835%);fill-opacity:1;" d="M 236.574219 82.417969 L 229.515625 82.417969 L 229.515625 89.472656 C 229.515625 93.089844 232.453125 96.023438 236.074219 96.023438 L 243.136719 96.023438 L 243.136719 88.96875 C 243.136719 85.355469 240.203125 82.417969 236.574219 82.417969 "/>
<path style=" stroke:none;fill-rule:nonzero;fill:rgb(34.00116%,78.631592%,92.855835%);fill-opacity:1;" d="M 252.9375 82.417969 L 259.988281 82.417969 L 259.988281 89.472656 C 259.988281 93.089844 257.054688 96.023438 253.429688 96.023438 L 246.375 96.023438 L 246.375 88.96875 C 246.375 85.355469 249.308594 82.417969 252.9375 82.417969 "/>
<path style=" stroke:none;fill-rule:nonzero;fill:rgb(63.000488%,83.872986%,11.605835%);fill-opacity:1;" d="M 203.246094 151.652344 L 203.246094 82.398438 C 203.246094 82.398438 208.003906 82.128906 208.003906 88 L 208.003906 125.707031 C 209.613281 123.675781 212.207031 121.855469 215.914063 121.855469 C 222.152344 121.855469 225.511719 125.988281 225.511719 134.171875 L 225.511719 159.355469 C 220.492188 159.355469 220.679688 154.113281 220.679688 154.113281 L 220.679688 134.730469 C 220.679688 128.714844 218.855469 126.195313 214.726563 126.195313 C 211.789063 126.195313 209.542969 128.226563 208.003906 130.464844 L 208.003906 159.339844 C 202.625 159.339844 203.246094 151.652344 203.246094 151.652344 "/>
<path style=" stroke:none;fill-rule:nonzero;fill:rgb(75.053406%,30.036926%,67.94281%);fill-opacity:1;" d="M 252.054688 154.417969 L 252.054688 134.730469 C 252.054688 128.714844 250.234375 126.195313 246.09375 126.195313 C 243.152344 126.195313 240.914063 128.226563 239.371094 130.464844 L 239.371094 159.355469 C 234.414063 159.355469 234.605469 154.433594 234.605469 154.433594 L 234.605469 120.808594 C 234.605469 120.808594 239.371094 120.648438 239.371094 125.707031 C 240.980469 123.675781 243.574219 121.855469 247.285156 121.855469 C 253.527344 121.855469 256.894531 125.988281 256.894531 134.171875 L 256.894531 159.355469 C 251.742188 159.355469 252.054688 154.417969 252.054688 154.417969 "/>
<path style=" stroke:none;fill-rule:nonzero;fill:rgb(34.00116%,78.631592%,92.855835%);fill-opacity:1;" d="M 276.558594 160.128906 C 269.582031 160.128906 264.433594 153.554688 264.433594 141.234375 C 264.433594 128.15625 270.003906 121.859375 276.773438 121.859375 C 281.496094 121.859375 284.316406 124.65625 286.367188 128.226563 L 282.765625 131.089844 C 281.003906 128.15625 279.453125 126.265625 276.492188 126.265625 C 272.265625 126.265625 269.300781 131.089844 269.300781 140.957031 C 269.300781 149.84375 271.769531 155.71875 276.703125 155.71875 C 279.453125 155.71875 281.21875 154.039063 283.050781 150.960938 L 286.367188 153.621094 C 283.960938 157.679688 281.003906 160.128906 276.558594 160.128906 "/>
<path style=" stroke:none;fill-rule:nonzero;fill:rgb(100%,100%,100%);fill-opacity:1;" d="M 289.96875 117.082031 C 289.96875 117.015625 289.957031 116.957031 289.9375 116.898438 C 289.917969 116.839844 289.882813 116.789063 289.835938 116.742188 C 289.785156 116.699219 289.714844 116.664063 289.628906 116.636719 C 289.542969 116.613281 289.433594 116.601563 289.300781 116.601563 L 288.882813 116.601563 L 288.882813 117.617188 L 289.285156 117.617188 C 289.546875 117.617188 289.726563 117.566406 289.824219 117.472656 C 289.917969 117.375 289.96875 117.246094 289.96875 117.082031 M 290.894531 119.441406 C 290.894531 119.464844 290.890625 119.484375 290.886719 119.5 C 290.878906 119.515625 290.863281 119.527344 290.835938 119.535156 C 290.808594 119.542969 290.765625 119.550781 290.714844 119.558594 C 290.660156 119.5625 290.585938 119.566406 290.492188 119.566406 C 290.417969 119.566406 290.351563 119.5625 290.296875 119.558594 C 290.246094 119.550781 290.199219 119.542969 290.167969 119.527344 C 290.136719 119.515625 290.109375 119.496094 290.089844 119.472656 C 290.070313 119.453125 290.054688 119.421875 290.042969 119.382813 L 289.859375 118.792969 C 289.789063 118.570313 289.699219 118.414063 289.59375 118.324219 C 289.488281 118.238281 289.328125 118.191406 289.117188 118.191406 L 288.882813 118.191406 L 288.882813 119.425781 C 288.882813 119.472656 288.863281 119.511719 288.828125 119.535156 C 288.789063 119.554688 288.695313 119.566406 288.542969 119.566406 C 288.386719 119.566406 288.285156 119.554688 288.242188 119.535156 C 288.199219 119.511719 288.175781 119.472656 288.175781 119.425781 L 288.175781 116.351563 C 288.175781 116.246094 288.203125 116.160156 288.253906 116.097656 C 288.308594 116.03125 288.390625 116 288.5 116 L 289.394531 116 C 289.625 116 289.828125 116.023438 289.996094 116.066406 C 290.167969 116.113281 290.308594 116.175781 290.417969 116.265625 C 290.53125 116.347656 290.613281 116.457031 290.664063 116.578125 C 290.71875 116.703125 290.742188 116.84375 290.742188 117 C 290.742188 117.273438 290.671875 117.484375 290.523438 117.628906 C 290.375 117.777344 290.179688 117.878906 289.933594 117.941406 C 290.070313 117.984375 290.195313 118.0625 290.308594 118.171875 C 290.425781 118.277344 290.53125 118.441406 290.617188 118.65625 L 290.835938 119.222656 C 290.875 119.339844 290.894531 119.414063 290.894531 119.441406 M 291.960938 117.882813 C 291.960938 117.484375 291.898438 117.121094 291.769531 116.792969 C 291.640625 116.464844 291.464844 116.183594 291.238281 115.953125 C 291.015625 115.71875 290.75 115.539063 290.441406 115.414063 C 290.132813 115.289063 289.800781 115.226563 289.445313 115.226563 C 289.058594 115.226563 288.710938 115.296875 288.398438 115.433594 C 288.082031 115.574219 287.8125 115.761719 287.59375 115.996094 C 287.371094 116.234375 287.199219 116.507813 287.074219 116.816406 C 286.953125 117.128906 286.894531 117.460938 286.894531 117.808594 C 286.894531 118.207031 286.957031 118.570313 287.082031 118.898438 C 287.210938 119.226563 287.390625 119.507813 287.613281 119.742188 C 287.835938 119.972656 288.105469 120.152344 288.410156 120.277344 C 288.714844 120.402344 289.050781 120.464844 289.410156 120.464844 C 289.800781 120.464844 290.152344 120.398438 290.464844 120.257813 C 290.777344 120.117188 291.046875 119.929688 291.269531 119.695313 C 291.488281 119.457031 291.660156 119.1875 291.78125 118.875 C 291.902344 118.5625 291.960938 118.234375 291.960938 117.882813 M 292.578125 117.832031 C 292.578125 118.277344 292.496094 118.695313 292.332031 119.078125 C 292.167969 119.464844 291.945313 119.800781 291.660156 120.085938 C 291.375 120.371094 291.042969 120.597656 290.65625 120.761719 C 290.269531 120.925781 289.855469 121.007813 289.410156 121.007813 C 288.949219 121.007813 288.527344 120.925781 288.144531 120.769531 C 287.761719 120.613281 287.429688 120.394531 287.15625 120.113281 C 286.878906 119.832031 286.664063 119.496094 286.507813 119.113281 C 286.355469 118.726563 286.277344 118.304688 286.277344 117.851563 C 286.277344 117.40625 286.355469 116.992188 286.523438 116.605469 C 286.6875 116.21875 286.910156 115.886719 287.191406 115.601563 C 287.476563 115.320313 287.8125 115.09375 288.195313 114.929688 C 288.582031 114.765625 289 114.683594 289.445313 114.683594 C 289.90625 114.683594 290.328125 114.765625 290.710938 114.921875 C 291.09375 115.082031 291.425781 115.300781 291.703125 115.582031 C 291.980469 115.863281 292.195313 116.195313 292.347656 116.574219 C 292.5 116.957031 292.578125 117.378906 292.578125 117.832031 "/>
<path style=" stroke:none;fill-rule:nonzero;fill:rgb(75.053406%,30.036926%,67.94281%);fill-opacity:1;" d="M 212.773438 168.671875 C 212.492188 168.371094 212.117188 168.167969 211.660156 168.167969 C 210.949219 168.167969 210.671875 168.953125 210.671875 170.175781 C 210.671875 171.492188 211.015625 172.121094 211.707031 172.121094 C 212.117188 172.121094 212.472656 171.925781 212.773438 171.636719 Z M 212.773438 172.597656 L 212.773438 172.175781 C 212.472656 172.457031 212.0625 172.699219 211.53125 172.699219 C 210.5 172.699219 209.933594 171.828125 209.933594 170.1875 C 209.933594 168.503906 210.550781 167.589844 211.609375 167.589844 C 212.117188 167.589844 212.472656 167.792969 212.773438 168.066406 L 212.773438 166.160156 L 213.503906 165.785156 L 213.503906 172.597656 Z M 212.773438 172.597656 "/>
<path style=" stroke:none;fill-rule:nonzero;fill:rgb(75.053406%,30.036926%,67.94281%);fill-opacity:1;" d="M 216.320313 168.179688 C 215.726563 168.179688 215.308594 168.683594 215.238281 169.796875 L 217.398438 169.796875 C 217.359375 168.851563 217.019531 168.179688 216.320313 168.179688 M 218.097656 170.363281 L 215.230469 170.363281 C 215.285156 171.417969 215.65625 172.109375 216.351563 172.109375 C 216.804688 172.109375 217.128906 171.953125 217.519531 171.558594 L 217.960938 171.972656 C 217.476563 172.445313 216.976563 172.703125 216.308594 172.703125 C 215.328125 172.703125 214.507813 171.894531 214.507813 170.148438 C 214.507813 168.523438 215.230469 167.589844 216.339844 167.589844 C 217.496094 167.589844 218.109375 168.542969 218.109375 170.113281 C 218.109375 170.226563 218.109375 170.289063 218.097656 170.363281 "/>
<path style=" stroke:none;fill-rule:nonzero;fill:rgb(75.053406%,30.036926%,67.94281%);fill-opacity:1;" d="M 207.265625 168.179688 C 206.671875 168.179688 206.253906 168.683594 206.183594 169.796875 L 208.34375 169.796875 C 208.304688 168.851563 207.964844 168.179688 207.265625 168.179688 M 209.042969 170.363281 L 206.175781 170.363281 C 206.230469 171.417969 206.597656 172.109375 207.296875 172.109375 C 207.75 172.109375 208.074219 171.953125 208.464844 171.558594 L 208.902344 171.972656 C 208.421875 172.445313 207.921875 172.703125 207.253906 172.703125 C 206.273438 172.703125 205.453125 171.894531 205.453125 170.148438 C 205.453125 168.523438 206.175781 167.589844 207.285156 167.589844 C 208.441406 167.589844 209.054688 168.542969 209.054688 170.113281 C 209.054688 170.226563 209.054688 170.289063 209.042969 170.363281 "/>
<path style=" stroke:none;fill-rule:nonzero;fill:rgb(75.053406%,30.036926%,67.94281%);fill-opacity:1;" d="M 222.09375 167.691406 L 222.820313 167.691406 L 222.820313 172.597656 L 222.09375 172.597656 Z M 222.464844 166.765625 C 222.1875 166.765625 221.949219 166.550781 221.949219 166.300781 C 221.949219 166.046875 222.1875 165.835938 222.464844 165.835938 C 222.746094 165.835938 222.972656 166.046875 222.972656 166.300781 C 222.972656 166.550781 222.746094 166.765625 222.464844 166.765625 M 220.589844 166.40625 C 220.300781 166.40625 220.09375 166.523438 220.09375 166.890625 L 220.09375 167.691406 L 220.992188 167.691406 L 220.992188 168.25 L 220.09375 168.25 L 220.09375 172.597656 L 219.371094 172.597656 L 219.371094 168.25 L 218.746094 168.25 L 218.746094 167.691406 L 219.371094 167.691406 L 219.371094 166.945313 C 219.371094 166.144531 219.835938 165.8125 220.515625 165.8125 C 220.800781 165.8125 220.96875 165.839844 221.132813 165.890625 L 221.132813 166.496094 C 220.980469 166.441406 220.800781 166.40625 220.589844 166.40625 "/>
<path style=" stroke:none;fill-rule:nonzero;fill:rgb(75.053406%,30.036926%,67.94281%);fill-opacity:1;" d="M 226.652344 172.597656 L 226.652344 169.308594 C 226.652344 168.503906 226.367188 168.171875 225.730469 168.171875 C 225.28125 168.171875 224.933594 168.441406 224.695313 168.738281 L 224.695313 172.597656 L 223.960938 172.597656 L 223.960938 167.691406 L 224.695313 167.691406 L 224.695313 168.105469 C 224.945313 167.835938 225.34375 167.589844 225.914063 167.589844 C 226.875 167.589844 227.390625 168.140625 227.390625 169.234375 L 227.390625 172.597656 Z M 226.652344 172.597656 "/>
<path style=" stroke:none;fill-rule:nonzero;fill:rgb(75.053406%,30.036926%,67.94281%);fill-opacity:1;" d="M 228.632813 167.691406 L 229.367188 167.691406 L 229.367188 172.597656 L 228.632813 172.597656 Z M 229.023438 166.765625 C 228.726563 166.765625 228.488281 166.550781 228.488281 166.300781 C 228.488281 166.046875 228.726563 165.835938 229.023438 165.835938 C 229.289063 165.835938 229.515625 166.046875 229.515625 166.300781 C 229.515625 166.550781 229.289063 166.765625 229.023438 166.765625 "/>
<path style=" stroke:none;fill-rule:nonzero;fill:rgb(75.053406%,30.036926%,67.94281%);fill-opacity:1;" d="M 233.335938 172.597656 L 233.335938 169.308594 C 233.335938 168.503906 233.054688 168.171875 232.414063 168.171875 C 231.964844 168.171875 231.621094 168.441406 231.382813 168.738281 L 231.382813 172.597656 L 230.648438 172.597656 L 230.648438 167.691406 L 231.382813 167.691406 L 231.382813 168.105469 C 231.628906 167.835938 232.027344 167.589844 232.601563 167.589844 C 233.558594 167.589844 234.074219 168.140625 234.074219 169.234375 L 234.074219 172.597656 Z M 233.335938 172.597656 "/>
<path style=" stroke:none;fill-rule:nonzero;fill:rgb(75.053406%,30.036926%,67.94281%);fill-opacity:1;" d="M 268.730469 172.597656 L 268.730469 169.308594 C 268.730469 168.503906 268.453125 168.171875 267.8125 168.171875 C 267.363281 168.171875 267.019531 168.441406 266.78125 168.738281 L 266.78125 172.597656 L 266.046875 172.597656 L 266.046875 167.691406 L 266.78125 167.691406 L 266.78125 168.105469 C 267.027344 167.835938 267.429688 167.589844 268 167.589844 C 268.960938 167.589844 269.472656 168.140625 269.472656 169.234375 L 269.472656 172.597656 Z M 268.730469 172.597656 "/>
<path style=" stroke:none;fill-rule:nonzero;fill:rgb(75.053406%,30.036926%,67.94281%);fill-opacity:1;" d="M 237.871094 168.671875 C 237.59375 168.371094 237.21875 168.167969 236.761719 168.167969 C 236.054688 168.167969 235.773438 168.953125 235.773438 170.175781 C 235.773438 171.492188 236.117188 172.121094 236.808594 172.121094 C 237.21875 172.121094 237.570313 171.925781 237.871094 171.636719 Z M 236.332031 174.402344 L 236.105469 173.898438 C 237.515625 173.726563 237.871094 173.308594 237.871094 172.382813 L 237.871094 172.175781 C 237.570313 172.457031 237.160156 172.699219 236.636719 172.699219 C 235.601563 172.699219 235.039063 171.828125 235.039063 170.1875 C 235.039063 168.503906 235.65625 167.589844 236.710938 167.589844 C 237.21875 167.589844 237.570313 167.792969 237.871094 168.066406 L 237.871094 167.691406 L 238.601563 167.691406 L 238.601563 172.148438 C 238.601563 173.539063 238.042969 174.183594 236.332031 174.402344 "/>
<path style=" stroke:none;fill-rule:nonzero;fill:rgb(75.053406%,30.036926%,67.94281%);fill-opacity:1;" d="M 244.210938 172.597656 L 244.210938 169.308594 C 244.210938 168.503906 243.929688 168.171875 243.296875 168.171875 C 242.839844 168.171875 242.5 168.441406 242.261719 168.738281 L 242.261719 172.597656 L 241.527344 172.597656 L 241.527344 166.160156 L 242.261719 165.785156 L 242.261719 168.105469 C 242.511719 167.835938 242.910156 167.589844 243.480469 167.589844 C 244.4375 167.589844 244.953125 168.140625 244.953125 169.234375 L 244.953125 172.597656 Z M 244.210938 172.597656 "/>
<path style=" stroke:none;fill-rule:nonzero;fill:rgb(75.053406%,30.036926%,67.94281%);fill-opacity:1;" d="M 247.800781 168.179688 C 247.207031 168.179688 246.785156 168.683594 246.722656 169.796875 L 248.878906 169.796875 C 248.835938 168.851563 248.5 168.179688 247.800781 168.179688 M 249.578125 170.363281 L 246.714844 170.363281 C 246.765625 171.417969 247.128906 172.109375 247.828125 172.109375 C 248.285156 172.109375 248.605469 171.953125 248.996094 171.558594 L 249.4375 171.972656 C 248.953125 172.445313 248.457031 172.703125 247.789063 172.703125 C 246.808594 172.703125 245.988281 171.894531 245.988281 170.148438 C 245.988281 168.523438 246.714844 167.589844 247.820313 167.589844 C 248.976563 167.589844 249.589844 168.542969 249.589844 170.113281 C 249.589844 170.226563 249.589844 170.289063 249.578125 170.363281 "/>
<path style=" stroke:none;fill-rule:nonzero;fill:rgb(75.053406%,30.036926%,67.94281%);fill-opacity:1;" d="M 253.113281 170.273438 C 252.84375 170.140625 252.582031 170.054688 252.089844 170.054688 C 251.441406 170.054688 251.148438 170.429688 251.148438 171.066406 C 251.148438 171.71875 251.429688 172.140625 251.96875 172.140625 C 252.429688 172.140625 252.84375 171.925781 253.113281 171.636719 Z M 253.113281 172.597656 L 253.113281 172.1875 C 252.800781 172.46875 252.390625 172.703125 251.839844 172.703125 C 251.03125 172.703125 250.417969 172.210938 250.417969 171.09375 C 250.417969 169.992188 251.136719 169.496094 252.097656 169.496094 C 252.507813 169.496094 252.863281 169.589844 253.113281 169.71875 L 253.113281 169.03125 C 253.113281 168.441406 252.832031 168.167969 252.238281 168.167969 C 251.828125 168.167969 251.484375 168.308594 251.085938 168.570313 L 250.75 168.085938 C 251.214844 167.777344 251.710938 167.589844 252.292969 167.589844 C 253.25 167.589844 253.84375 167.925781 253.84375 168.964844 L 253.84375 172.597656 Z M 253.113281 172.597656 "/>
<path style=" stroke:none;fill-rule:nonzero;fill:rgb(75.053406%,30.036926%,67.94281%);fill-opacity:1;" d="M 278.707031 170.273438 C 278.4375 170.140625 278.175781 170.054688 277.683594 170.054688 C 277.035156 170.054688 276.742188 170.429688 276.742188 171.066406 C 276.742188 171.71875 277.023438 172.140625 277.5625 172.140625 C 278.023438 172.140625 278.4375 171.925781 278.707031 171.636719 Z M 278.707031 172.597656 L 278.707031 172.1875 C 278.394531 172.46875 277.984375 172.703125 277.433594 172.703125 C 276.625 172.703125 276.011719 172.210938 276.011719 171.09375 C 276.011719 169.992188 276.730469 169.496094 277.691406 169.496094 C 278.101563 169.496094 278.457031 169.589844 278.707031 169.71875 L 278.707031 169.03125 C 278.707031 168.441406 278.425781 168.167969 277.832031 168.167969 C 277.421875 168.167969 277.082031 168.308594 276.679688 168.570313 L 276.34375 168.085938 C 276.808594 167.777344 277.304688 167.589844 277.886719 167.589844 C 278.84375 167.589844 279.4375 167.925781 279.4375 168.964844 L 279.4375 172.597656 Z M 278.707031 172.597656 "/>
<path style=" stroke:none;fill-rule:nonzero;fill:rgb(75.053406%,30.036926%,67.94281%);fill-opacity:1;" d="M 255.09375 172.597656 L 255.09375 166.160156 L 255.832031 165.785156 L 255.832031 172.597656 Z M 255.09375 172.597656 "/>
<path style=" stroke:none;fill-rule:nonzero;fill:rgb(75.053406%,30.036926%,67.94281%);fill-opacity:1;" d="M 259.054688 172.558594 C 258.808594 172.652344 258.546875 172.699219 258.214844 172.699219 C 257.566406 172.699219 257.277344 172.351563 257.277344 171.660156 L 257.277344 168.234375 L 256.695313 168.234375 L 256.695313 167.691406 L 257.277344 167.691406 L 257.277344 166.160156 L 258 165.785156 L 258 167.691406 L 259.089844 167.691406 L 259.089844 168.234375 L 258 168.234375 L 258 171.597656 C 258 171.953125 258.136719 172.101563 258.425781 172.101563 C 258.6875 172.101563 258.867188 172.066406 259.117188 171.972656 Z M 259.054688 172.558594 "/>
<path style=" stroke:none;fill-rule:nonzero;fill:rgb(75.053406%,30.036926%,67.94281%);fill-opacity:1;" d="M 262.773438 172.597656 L 262.773438 169.308594 C 262.773438 168.503906 262.496094 168.171875 261.855469 168.171875 C 261.40625 168.171875 261.0625 168.441406 260.820313 168.738281 L 260.820313 172.597656 L 260.089844 172.597656 L 260.089844 166.160156 L 260.820313 165.785156 L 260.820313 168.105469 C 261.070313 167.835938 261.46875 167.589844 262.039063 167.589844 C 263 167.589844 263.515625 168.140625 263.515625 169.234375 L 263.515625 172.597656 Z M 262.773438 172.597656 "/>
<path style=" stroke:none;fill-rule:nonzero;fill:rgb(75.053406%,30.036926%,67.94281%);fill-opacity:1;" d="M 205.058594 167.601563 C 204.550781 167.632813 204.183594 167.855469 203.957031 168.105469 L 203.957031 167.691406 L 203.222656 167.691406 L 203.222656 172.597656 L 203.957031 172.597656 L 203.957031 168.738281 C 204.195313 168.441406 204.539063 168.171875 204.988281 168.171875 C 205.011719 168.171875 205.035156 168.175781 205.058594 168.175781 Z M 205.058594 167.601563 "/>
<path style=" stroke:none;fill-rule:nonzero;fill:rgb(75.053406%,30.036926%,67.94281%);fill-opacity:1;" d="M 284.503906 168.179688 C 283.90625 168.179688 283.488281 168.683594 283.421875 169.796875 L 285.578125 169.796875 C 285.539063 168.851563 285.199219 168.179688 284.503906 168.179688 M 286.277344 170.363281 L 283.410156 170.363281 C 283.46875 171.417969 283.835938 172.109375 284.53125 172.109375 C 284.984375 172.109375 285.3125 171.953125 285.699219 171.558594 L 286.140625 171.972656 C 285.65625 172.445313 285.15625 172.703125 284.488281 172.703125 C 283.507813 172.703125 282.691406 171.894531 282.691406 170.148438 C 282.691406 168.523438 283.410156 167.589844 284.523438 167.589844 C 285.675781 167.589844 286.289063 168.542969 286.289063 170.113281 C 286.289063 170.226563 286.289063 170.289063 286.277344 170.363281 "/>
<path style=" stroke:none;fill-rule:nonzero;fill:rgb(75.053406%,30.036926%,67.94281%);fill-opacity:1;" d="M 282.222656 167.601563 C 281.714844 167.632813 281.347656 167.855469 281.121094 168.105469 L 281.121094 167.691406 L 280.386719 167.691406 L 280.386719 172.597656 L 281.121094 172.597656 L 281.121094 168.738281 C 281.359375 168.441406 281.703125 168.171875 282.152344 168.171875 C 282.175781 168.171875 282.199219 168.175781 282.222656 168.175781 Z M 282.222656 167.601563 "/>
<path style=" stroke:none;fill-rule:nonzero;fill:rgb(75.053406%,30.036926%,67.94281%);fill-opacity:1;" d="M 273.871094 172.113281 C 273.179688 172.113281 272.8125 171.429688 272.757813 170.394531 L 272.757813 169.894531 C 272.8125 168.859375 273.179688 168.179688 273.871094 168.179688 C 274.324219 168.179688 274.648438 168.335938 275.035156 168.730469 L 275.480469 168.320313 C 274.996094 167.84375 274.496094 167.589844 273.828125 167.589844 C 272.898438 167.589844 272.121094 168.324219 272.042969 169.894531 L 272.042969 170.394531 C 272.121094 171.964844 272.898438 172.703125 273.828125 172.703125 C 274.496094 172.703125 274.996094 172.449219 275.480469 171.96875 L 275.035156 171.558594 C 274.648438 171.953125 274.324219 172.113281 273.871094 172.113281 "/>
</g>
</svg>
